<svg version="1.1" viewBox="0.0 0.0 336.0577427821522 318.78740157480314" fill="none" stroke="none" stroke-linecap="square" stroke-miterlimit="10" xmlns:xlink="http://www.w3.org/1999/xlink" xmlns="http://www.w3.org/2000/svg"><clipPath id="p.0"><path d="m0 0l336.05774 0l0 318.7874l-336.05774 0l0 -318.7874z" clip-rule="nonzero"/></clipPath><g clip-path="url(#p.0)"><path fill="#000000" fill-opacity="0.0" d="m0 0l336.05774 0l0 318.7874l-336.05774 0z" fill-rule="evenodd"/><g filter="url(#shadowFilter-p.1)"><use xlink:href="#p.1" transform="matrix(1.0 0.0 0.0 1.0 -4.588611512672244 6.55321624835958)"/></g><defs><filter id="shadowFilter-p.1" filterUnits="userSpaceOnUse"><feGaussianBlur in="SourceAlpha" stdDeviation="4.5" result="blur"/><feComponentTransfer in="blur" color-interpolation-filters="sRGB"><feFuncR type="linear" slope="0" intercept="0.6"/><feFuncG type="linear" slope="0" intercept="0.6"/><feFuncB type="linear" slope="0" intercept="0.6"/><feFuncA type="linear" slope="0.66" intercept="0"/></feComponentTransfer></filter></defs><g id="p.1"><path fill="#ffffff" d="m12.139108 159.3937l0 0c0 -83.43414 69.79423 -151.07088 155.88976 -151.07088l0 0c41.344543 0 80.99571 15.916348 110.23071 44.24763c29.234985 28.331284 45.659058 66.75675 45.659058 106.82324l0 0c0 83.43413 -69.794235 151.07086 -155.88977 151.07086l0 0c-86.095535 0 -155.88976 -67.636734 -155.88976 -151.07086z" fill-rule="evenodd"/><path stroke="#d9d9d9" stroke-width="3.0" stroke-linejoin="round" stroke-linecap="butt" d="m12.139108 159.3937l0 0c0 -83.43414 69.79423 -151.07088 155.88976 -151.07088l0 0c41.344543 0 80.99571 15.916348 110.23071 44.24763c29.234985 28.331284 45.659058 66.75675 45.659058 106.82324l0 0c0 83.43413 -69.794235 151.07086 -155.88977 151.07086l0 0c-86.095535 0 -155.88976 -67.636734 -155.88976 -151.07086z" fill-rule="evenodd"/><path fill="#e1165a" d="m145.41861 169.98744q-5.453125 0 -7.609375 -0.46875q-2.15625 -0.453125 -3.859375 -2.34375q-1.6875 -1.890625 -1.6875 -5.625q0 -4.703125 2.765625 -12.40625q2.765625 -7.703125 5.9375 -13.1875q-0.546875 0.03125 -2.09375 0.671875q-1.546875 0.640625 -2.96875 1.078125q0.875 -1.1875 1.421875 0.015625q0.5625 1.203125 0.5625 2.234375q0 1.953125 -1.5625 2.96875q-1.546875 1.0 -3.546875 1.0q-2.390625 0 -3.953125 -1.375q-1.5625 -1.375 -1.5625 -3.859375q0 -2.8125 2.0625 -5.0q2.078125 -2.1875 5.46875 -3.375q3.40625 -1.203125 7.453125 -1.203125q1.453125 0 2.75 0.125q5.109375 -8.109375 11.46875 -13.84375q6.375 -5.75 12.4375 -5.75q3.5 0 6.84375 1.515625l-10.9375 51.234375l-12.40625 0l5.25 -24.78125q-1.34375 -0.625 -3.296875 -1.125q-1.953125 -0.5 -3.203125 -0.609375q-3.34375 7.234375 -5.75 15.65625q-2.390625 8.40625 -2.390625 13.34375q0 2.0625 2.40625 5.109375zm16.3125 -51.625q0.03125 -0.015625 -2.953125 3.984375q-2.96875 4.0 -5.046875 8.203125q3.1875 0.609375 5.109375 1.421875l2.890625 -13.609375zm25.026428 -0.96875l12.765625 -1.734375l-4.75 22.359375q0.859375 -0.0625 3.28125 -2.328125q2.421875 -2.265625 3.84375 -5.734375q1.421875 -3.46875 1.421875 -6.796875q0 -3.515625 -1.703125 -5.59375q-1.703125 -2.09375 -5.1875 -2.09375q-7.578125 0 -11.73436 3.875q-4.15625 3.875 -4.15625 10.9375q0 2.15625 0.46875 3.125q0.46875 0.96875 0.46875 2.78125q-5.46875 0 -7.671875 -1.859375q-2.203125 -1.875 -2.203125 -5.96875q0 -4.78125 3.765625 -9.125q3.765625 -4.34375 9.5 -6.96875q5.7343597 -2.625 11.499985 -2.625q5.59375 0 9.453125 1.984375q3.859375 1.96875 5.75 5.28125q1.90625 3.296875 1.90625 7.25q0 4.6875 -2.546875 9.140625q-2.546875 4.453125 -7.265625 7.28125q-4.71875 2.8125 -10.828125 2.8125l0 -0.96875l-3.296875 19.96875l-12.406235 0l9.624985 -45.0z" fill-rule="nonzero"/><path fill="#666666" d="m79.21978 211.84557q-1.578125 0 -2.34375 -0.78125q-0.765625 -0.78125 -0.765625 -2.671875q0 -1.125 0.21875 -2.828125q0.234375 -1.71875 0.765625 -4.6875q0.875 -5.421875 1.40625 -9.390625q0.3125 -2.453125 0.3125 -4.0625q0 -0.84375 -0.4375 -0.84375q-0.65625 0 -1.796875 0.828125q-1.125 0.8125 -2.578125 2.71875q-0.6875 0.96875 -1.65625 0.96875q-0.84375 0 -1.390625 -0.703125q-0.53125 -0.703125 -0.53125 -1.546875q0 -0.703125 0.265625 -1.375q0.265625 -0.671875 0.84375 -1.46875q1.734375 -2.4375 3.921875 -3.796875q2.203125 -1.359375 4.453125 -1.359375q2.234375 0 3.453125 1.4375q1.21875 1.4375 1.21875 4.03125q0 0.984375 -0.1875 2.28125q-0.171875 1.296875 -0.3125 2.125q-0.140625 0.8125 -0.921875 0.96875q1.359375 -6.0625 3.984375 -8.453125q2.640625 -2.390625 5.859375 -2.390625q2.609375 0 4.09375 1.828125q1.484375 1.828125 1.484375 5.0q0 1.203125 -1.03125 2.828125q1.125 -5.203125 3.609375 -7.421875q2.484375 -2.234375 5.78125 -2.234375q2.765625 0 4.25 1.796875q1.5 1.78125 1.5 4.84375q0 1.609375 -0.46875 3.859375l-2.125 9.90625q-0.328125 1.671875 -0.328125 2.84375q0 1.171875 0.46875 1.6875q0.484375 0.5 1.375 0.5q0.9375 0 1.890625 -0.65625q0.953125 -0.671875 2.390625 -2.390625q0.625 -0.734375 1.484375 -0.734375q0.828125 0 1.25 0.6875q0.4375 0.671875 0.4375 1.59375q0 1.625 -0.828125 2.609375q-1.890625 2.28125 -3.796875 3.375q-1.90625 1.078125 -4.03125 1.078125q-3.265625 0 -5.140625 -1.96875q-1.859375 -1.96875 -1.859375 -5.1875q0 -2.125 0.859375 -6.09375l1.375 -6.34375q0.078125 -0.3125 0.25 -1.09375q0.171875 -0.78125 0.265625 -1.453125q0.09375 -0.671875 0.09375 -1.3125q0 -0.96875 -0.28125 -1.328125q-0.28125 -0.375 -0.796875 -0.375q-1.296875 0 -2.9375 1.921875q-1.625 1.90625 -3.203125 6.65625q-1.578125 4.75 -2.5625 12.453125q-0.28125 2.28125 -1.078125 3.203125q-0.78125 0.921875 -2.453125 0.921875q-1.5 0 -2.234375 -0.765625q-0.734375 -0.78125 -0.734375 -2.578125q0 -1.484375 0.390625 -3.8125q0.390625 -2.34375 0.96875 -5.46875q1.578125 -8.328125 1.578125 -10.6875q0 -1.0625 -0.3125 -1.453125q-0.3125 -0.390625 -0.96875 -0.390625q-1.390625 0 -3.046875 1.75q-1.640625 1.75 -3.3125 6.5625q-1.671875 4.796875 -2.8125 13.0625q-0.265625 1.9375 -0.890625 2.859375q-0.625 0.921875 -2.34375 0.921875zm51.774666 -9.34375q0.859375 0 1.265625 0.6875q0.421875 0.671875 0.421875 1.59375q0 1.65625 -0.828125 2.625q-1.359375 1.65625 -3.84375 3.046875q-2.4843674 1.390625 -5.3437424 1.390625q-3.9375 0 -6.15625 -2.1875q-2.21875 -2.1875 -2.21875 -5.90625q0 -2.5625 1.078125 -4.78125q1.09375 -2.21875 3.046875 -3.546875q1.953125 -1.34375 4.421875 -1.34375q2.3125 0 3.734375 1.40625q1.421875 1.40625 1.421875 3.75q0 2.6875 -1.890625 4.59375q-1.890625 1.890625 -5.265625 2.703125q0.21875 0.40625 2.21875 0.40625q1.375 0 3.21875 -1.0q1.8593674 -1.015625 3.2343674 -2.6875q0.625 -0.75 1.484375 -0.75zm-8.734367 -3.578125q-0.875 0 -1.609375 1.234375q-0.71875 1.234375 -0.71875 3.140625l-0.671875 0q1.65625 -1.078125 2.640625 -1.890625q0.984375 -0.8125 0.984375 -1.75q0 -0.375 -0.15625 -0.546875q-0.15625 -0.1875 -0.46875 -0.1875zm22.354286 3.578125q0.859375 0 1.265625 0.6875q0.421875 0.671875 0.421875 1.59375q0 1.65625 -0.828125 2.625q-1.5625 1.890625 -3.46875 3.171875q-1.890625 1.265625 -4.390625 1.265625q-7.796875 0 -7.796875 -10.65625q0 -1.5625 0.0625 -2.375l-0.59375 0q-1.3437424 0 -1.9218674 -0.59375q-0.5625 -0.609375 -0.5625 -1.71875q0 -2.65625 2.2812424 -2.65625l1.359375 0q0.5 -3.28125 1.75 -6.53125q1.25 -3.265625 3.125 -5.296875q1.875 -2.03125 4.15625 -2.03125q1.859375 0 2.84375 1.53125q1.0 1.53125 1.0 3.6875q0 5.703125 -3.328125 8.640625l1.984375 0q0.859375 0 1.3125 0.453125q0.453125 0.453125 0.453125 1.40625q0 3.109375 -4.640625 3.109375l-3.546875 0q-0.03125 1.03125 -0.03125 1.984375q0 3.421875 0.6875 4.609375q0.703125 1.1875 2.125 1.1875q1.25 0 2.265625 -0.796875q1.015625 -0.796875 2.53125 -2.5625q0.625 -0.734375 1.484375 -0.734375zm-6.0625 -17.75q-0.078125 0 -0.609375 1.0625q-0.53125 1.0625 -1.09375 3.3125q-0.546875 2.25 -0.65625 3.125q0.46875 -0.421875 1.421875 -2.46875q0.96875 -2.0625 0.96875 -3.71875q0 -1.3125 -0.03125 -1.3125zm23.448044 17.75q0.84375 0 1.265625 0.6875q0.4375 0.671875 0.4375 1.59375q0 1.65625 -0.84375 2.625q-1.65625 1.890625 -3.46875 3.171875q-1.796875 1.265625 -4.171875 1.265625q-2.09375 0 -3.203125 -1.25q-1.09375 -1.25 -1.09375 -3.453125q0 -1.03125 0.5 -3.609375q0.4375 -2.125 0.4375 -2.875q0.34375 -0.171875 0.34375 0.171875q-0.078125 0 -0.796875 0.984375q-0.703125 0.96875 -1.5 2.8125q-0.796875 1.84375 -1.296875 3.90625q-0.796875 3.3125 -3.96875 3.3125q-1.5 0 -1.953125 -1.015625q-0.453125 -1.03125 -0.453125 -3.125q0 -1.125 0.03125 -1.796875l0.03125 -2.75q0 -5.40625 1.109375 -11.28125q1.109375 -5.875 3.375 -10.046875q2.265625 -4.171875 5.65625 -4.171875q1.953125 0 3.125 1.609375q1.171875 1.609375 1.171875 4.03125q0 3.6875 -2.109375 7.5625q-2.109375 3.875 -6.609375 8.78125q-0.09375 1.515625 -0.453125 1.5q0.15625 -1.390625 1.625 -3.34375q1.484375 -1.953125 3.0 -2.828125q1.515625 -0.890625 2.859375 -0.890625q2.96875 0 2.96875 2.984375q0 1.421875 -0.78125 5.03125q-0.640625 2.9375 -0.640625 3.828125q0 0.671875 0.28125 0.671875q0.421875 0 1.25 -0.734375q0.84375 -0.75 2.40625 -2.625q0.625 -0.734375 1.46875 -0.734375zm-10.28125 -19.96875q-0.15625 0 -0.8125 1.53125q-0.65625 1.53125 -1.359375 4.515625q-0.703125 2.984375 -0.84375 4.140625q0.53125 -0.625 1.875 -3.484375q1.359375 -2.875 1.359375 -5.140625q0 -0.96875 -0.109375 -1.28125q-0.109375 -0.328125 -0.109375 -0.28125zm26.131836 17.0625q0.859375 0 1.25 0.71875q0.40625 0.71875 0.40625 1.59375q0 2.203125 -1.515625 2.671875q-2.15625 0.75 -4.21875 0.828125q-0.578125 2.59375 -2.703125 4.515625q-2.125 1.921875 -4.875 1.921875q-2.296875 0 -3.9375 -1.125q-1.640625 -1.125 -2.484375 -2.9375q-0.84375 -1.828125 -0.84375 -3.9375q0 -2.796875 1.078125 -5.015625q1.09375 -2.21875 3.03125 -3.5q1.9375 -1.28125 4.3125 -1.28125q2.953125 0 4.734375 2.03125q1.796875 2.03125 2.03125 4.234375q0.875 -0.0625 3.0625 -0.609375q0.34375 -0.109375 0.671875 -0.109375zm-11.375 7.140625q0.796875 0 1.421875 -0.703125q0.640625 -0.703125 0.8125 -1.75q-0.859375 -0.578125 -1.515625 -1.90625q-0.640625 -1.328125 -0.640625 -2.828125q0 -0.609375 0.65625 -0.96875l0 0.578125q-1.015625 0 -1.765625 1.09375q-0.75 1.078125 -0.75 3.28125q0 1.671875 0.5625 2.4375q0.578125 0.765625 1.21875 0.765625zm29.00499 -4.234375q0.859375 0 1.265625 0.6875q0.421875 0.671875 0.421875 1.59375q0 1.65625 -0.828125 2.625q-1.46875 1.796875 -3.296875 3.125q-1.828125 1.3125 -3.734375 1.3125q-3.09375 0 -4.1875 -2.421875q-0.796875 1.015625 -2.046875 1.71875q-1.234375 0.703125 -2.875 0.703125q-2.4375 0 -4.0 -1.796875q-1.5625 -1.8125 -1.5625 -4.609375q0 -2.9375 1.25 -5.453125q1.25 -2.53125 3.453125 -4.140625q2.21875 -1.625 4.40625 -1.875q0.609375 -6.234375 2.5625 -11.265625q1.96875 -5.046875 5.46875 -5.046875q1.84375 0 3.015625 1.59375q1.171875 1.59375 1.171875 4.5625q0 4.015625 -1.9375 9.3125q-1.9375 5.28125 -5.046875 10.625q0.109375 1.625 0.4375 2.234375q0.328125 0.609375 0.625 0.609375q0.671875 0 1.515625 -0.71875q0.84375 -0.71875 2.4375 -2.640625q0.640625 -0.734375 1.484375 -0.734375zm-4.078125 -20.015625q-0.125 0 -0.703125 2.0625q-0.578125 2.046875 -1.046875 5.78125q-0.453125 3.734375 -0.46875 4.109375q2.25 -4.921875 2.25 -9.890625q0 -1.203125 -0.015625 -1.78125q-0.015625 -0.578125 -0.015625 -0.28125zm-9.984375 24.421875q0.40625 0 0.921875 -0.421875q0.515625 -0.4375 1.296875 -1.546875q-0.3125 -1.65625 -0.3125 -4.03125q0 -0.84375 0.03125 -1.71875q-0.6875 0.203125 -1.828125 1.96875q-1.125 1.765625 -1.125 3.9375q0 1.8125 1.015625 1.8125zm29.910492 -7.3125q0.859375 0 1.25 0.71875q0.40625 0.71875 0.40625 1.59375q0 2.203125 -1.515625 2.671875q-2.15625 0.75 -4.21875 0.828125q-0.578125 2.59375 -2.703125 4.515625q-2.125 1.921875 -4.875 1.921875q-2.296875 0 -3.9375 -1.125q-1.640625 -1.125 -2.484375 -2.9375q-0.84375 -1.828125 -0.84375 -3.9375q0 -2.796875 1.078125 -5.015625q1.09375 -2.21875 3.03125 -3.5q1.9375 -1.28125 4.3125 -1.28125q2.953125 0 4.734375 2.03125q1.796875 2.03125 2.03125 4.234375q0.875 -0.0625 3.0625 -0.609375q0.34375 -0.109375 0.671875 -0.109375zm-11.375 7.140625q0.796875 0 1.421875 -0.703125q0.640625 -0.703125 0.8125 -1.75q-0.859375 -0.578125 -1.515625 -1.90625q-0.640625 -1.328125 -0.640625 -2.828125q0 -0.609375 0.65625 -0.96875l0 0.578125q-1.015625 0 -1.765625 1.09375q-0.75 1.078125 -0.75 3.28125q0 1.671875 0.5625 2.4375q0.578125 0.765625 1.21875 0.765625zm22.458115 -4.234375q0.859375 0 1.265625 0.6875q0.421875 0.671875 0.421875 1.59375q0 1.65625 -0.828125 2.609375q-1.546875 1.90625 -3.4375 3.1875q-1.875 1.265625 -4.3125 1.265625q-3.484375 0 -5.109375 -3.046875q-1.609375 -3.046875 -1.609375 -7.609375q0 -4.3125 1.109375 -9.796875q1.109375 -5.5 3.375 -9.609375q2.265625 -4.125 5.625 -4.125q2.078125 0 3.1875 1.796875q1.109375 1.796875 1.109375 4.890625q0 4.265625 -2.34375 9.8125q-2.328125 5.546875 -6.109375 10.703125q0.15625 0.90625 0.53125 1.328125q0.375 0.40625 0.953125 0.40625q1.1875 0 2.125 -0.71875q0.953125 -0.71875 2.5625 -2.640625q0.640625 -0.734375 1.484375 -0.734375zm-4.265625 -19.96875q-0.28125 0 -1.1875 2.609375q-0.90625 2.609375 -1.671875 6.8125q-0.75 4.1875 -0.765625 5.40625q1.03125 -1.71875 2.453125 -5.703125q1.421875 -3.984375 1.421875 -7.21875q0 -1.90625 -0.25 -1.90625zm20.110443 17.0625q0.859375 0 1.25 0.71875q0.40625 0.71875 0.40625 1.59375q0 2.203125 -1.515625 2.671875q-2.15625 0.75 -4.21875 0.828125q-0.578125 2.59375 -2.703125 4.515625q-2.125 1.921875 -4.875 1.921875q-2.296875 0 -3.9375 -1.125q-1.640625 -1.125 -2.484375 -2.9375q-0.84375 -1.828125 -0.84375 -3.9375q0 -2.796875 1.078125 -5.015625q1.09375 -2.21875 3.03125 -3.5q1.9375 -1.28125 4.3125 -1.28125q2.953125 0 4.734375 2.03125q1.796875 2.03125 2.03125 4.234375q0.875 -0.0625 3.0625 -0.609375q0.34375 -0.109375 0.671875 -0.109375zm-11.375 7.140625q0.796875 0 1.421875 -0.703125q0.640625 -0.703125 0.8125 -1.75q-0.859375 -0.578125 -1.515625 -1.90625q-0.640625 -1.328125 -0.640625 -2.828125q0 -0.609375 0.65625 -0.96875l0 0.578125q-1.015625 0 -1.765625 1.09375q-0.75 1.078125 -0.75 3.28125q0 1.671875 0.5625 2.4375q0.578125 0.765625 1.21875 0.765625zm27.06749 -4.15625q0.859375 0 1.265625 0.6875q0.421875 0.6875 0.421875 1.546875q0 0.984375 -0.328125 1.59375q-0.328125 0.609375 -0.984375 1.046875q-2.984375 2.015625 -4.375 2.984375l-1.96875 1.3125q-1.28125 7.0 -3.546875 11.34375q-2.25 4.34375 -5.96875 4.34375q-2.0625 0 -3.390625 -1.3125q-1.3125 -1.296875 -1.3125 -3.359375q0 -2.671875 2.03125 -5.640625q2.03125 -2.96875 7.234375 -6.984375l0.484375 0.109375q0.296875 0.421875 -0.828125 1.015625q-1.109375 0.578125 -2.21875 0.578125q-2.484375 0 -3.953125 -1.796875q-1.46875 -1.796875 -1.46875 -4.5625q0 -2.953125 1.359375 -5.578125q1.359375 -2.640625 3.65625 -4.265625q2.296875 -1.625 4.921875 -1.625q1.078125 0 1.5 0.484375q0.4375 0.484375 0.484375 0.765625q0.0625 -0.03125 0.984375 -0.03125q1.109375 0 1.703125 0.4375q0.609375 0.421875 0.609375 1.5625q0 0.453125 -0.03125 0.75q-0.140625 1.09375 -0.875 5.46875q-0.140625 0.8125 -0.296875 1.8125q-0.15625 0.984375 -0.421875 0.9375q1.640625 -1.625 4.125 -3.234375q0.640625 -0.390625 1.1875 -0.390625zm-12.234375 4.328125q0.4375 0 1.0 -0.75q0.578125 -0.765625 0.859375 -2.390625l0.9375 -5.078125q-0.265625 0.015625 -1.328125 0.9375q-1.046875 0.921875 -1.71875 2.515625q-0.65625 1.578125 -0.65625 3.375q0 0.8125 0.234375 1.109375q0.25 0.28125 0.671875 0.28125zm-2.875 15.734375q0.421875 0 1.390625 -1.84375q0.96875 -1.84375 1.5 -4.1875q-0.953125 0.828125 -2.046875 2.53125q-1.09375 1.703125 -1.09375 2.875q0 0.375 0.0625 0.5q0.078125 0.125 0.1875 0.125zm25.71904 -28.5625q1.015625 0 1.578125 0.390625q0.5625 0.375 0.5625 1.234375q0 0.890625 -0.921875 6.046875q-0.796875 4.875 -0.9375 5.78125q-1.28125 9.0 -3.65625 14.453125q-2.359375 5.453125 -6.5781403 5.453125q-2.0625 0 -3.390625 -1.3125q-1.3125 -1.296875 -1.3125 -3.359375q0 -1.78125 0.796875 -3.609375q0.8125 -1.8125 2.890625 -4.078125q2.09375 -2.265625 5.6093903 -4.96875l0.078125 -0.53125q0.25 -1.265625 1.25 -3.546875q-0.046875 2.859375 -1.46875 4.34375q-1.40625 1.46875 -3.0937653 1.46875q-1.9375 0 -3.109375 -1.6875q-1.15625 -1.6875 -1.15625 -4.0625q0 -2.65625 0.359375 -4.875q0.359375 -2.21875 1.171875 -4.6875q0.421875 -1.28125 1.234375 -1.859375q0.8125 -0.59375 2.3906403 -0.59375q1.015625 0 1.546875 0.4375q0.53125 0.421875 0.53125 1.265625q0 0.359375 -0.40625 2.03125q-0.34375 1.265625 -0.546875 2.296875q-0.28125 1.40625 -0.484375 2.671875q-0.1875 1.265625 -0.1875 2.03125q0 0.609375 0 0.609375q0.15625 0 0.796875 -0.859375q0.65625 -0.859375 1.5 -2.90625q0.859375 -2.0625 1.703125 -5.09375q0.3125 -1.28125 1.078125 -1.875q0.78125 -0.609375 2.171875 -0.609375zm-9.562515 28.5625q0.421875 0 1.3750153 -1.78125q0.96875 -1.765625 1.53125 -4.265625q-0.9375 0.796875 -2.0625153 2.515625q-1.109375 1.734375 -1.109375 2.90625q0 0.375 0.0625 0.5q0.078125 0.125 0.203125 0.125z" fill-rule="nonzero"/></g></g></svg>