<svg version="1.1" viewBox="0.0 0.0 336.0577427821522 318.78740157480314" fill="none" stroke="none" stroke-linecap="square" stroke-miterlimit="10" xmlns:xlink="http://www.w3.org/1999/xlink" xmlns="http://www.w3.org/2000/svg"><clipPath id="p.0"><path d="m0 0l336.05774 0l0 318.7874l-336.05774 0l0 -318.7874z" clip-rule="nonzero"/></clipPath><g clip-path="url(#p.0)"><path fill="#000000" fill-opacity="0.0" d="m0 0l336.05774 0l0 318.7874l-336.05774 0z" fill-rule="evenodd"/><g filter="url(#shadowFilter-p.1)"><use xlink:href="#p.1" transform="matrix(1.0 0.0 0.0 1.0 -4.588611512672244 6.55321624835958)"/></g><defs><filter id="shadowFilter-p.1" filterUnits="userSpaceOnUse"><feGaussianBlur in="SourceAlpha" stdDeviation="4.5" result="blur"/><feComponentTransfer in="blur" color-interpolation-filters="sRGB"><feFuncR type="linear" slope="0" intercept="0.6"/><feFuncG type="linear" slope="0" intercept="0.6"/><feFuncB type="linear" slope="0" intercept="0.6"/><feFuncA type="linear" slope="0.66" intercept="0"/></feComponentTransfer></filter></defs><g id="p.1"><path fill="#ffffff" d="m12.139108 159.3937l0 0c0 -83.43414 69.79423 -151.07088 155.88976 -151.07088l0 0c41.344543 0 80.99571 15.916348 110.23071 44.24763c29.234985 28.331284 45.659058 66.75675 45.659058 106.82324l0 0c0 83.43413 -69.794235 151.07086 -155.88977 151.07086l0 0c-86.095535 0 -155.88976 -67.636734 -155.88976 -151.07086z" fill-rule="evenodd"/><path stroke="#d9d9d9" stroke-width="3.0" stroke-linejoin="round" stroke-linecap="butt" d="m12.139108 159.3937l0 0c0 -83.43414 69.79423 -151.07088 155.88976 -151.07088l0 0c41.344543 0 80.99571 15.916348 110.23071 44.24763c29.234985 28.331284 45.659058 66.75675 45.659058 106.82324l0 0c0 83.43413 -69.794235 151.07086 -155.88977 151.07086l0 0c-86.095535 0 -155.88976 -67.636734 -155.88976 -151.07086z" fill-rule="evenodd"/><path fill="#e1165a" d="m115.59598 232.49869q-12.65625 0 -17.671875 -1.078125q-5.015625 -1.0625 -8.953125 -5.484375q-3.921875 -4.40625 -3.921875 -13.046875q0 -10.921875 6.40625 -28.796875q6.40625 -17.875 13.765625 -30.578125q-1.203125 0.078125 -4.796875 1.5625q-3.578125 1.484375 -6.890625 2.46875q2.078125 -2.78125 3.34375 0.03125q1.265625 2.8125 1.265625 5.203125q0 4.515625 -3.609375 6.890625q-3.59375 2.359375 -8.265625 2.359375q-5.546875 0 -9.1875 -3.203125q-3.625 -3.203125 -3.625 -8.984375q0 -6.53125 4.8125 -11.609375q4.8125 -5.09375 12.703125 -7.859375q7.890625 -2.765625 17.25 -2.765625q3.40625 0 6.375 0.28125q11.875 -18.796875 26.640625 -32.109375q14.78125 -13.328125 28.84375 -13.328125q8.125 0 15.90625 3.515625l-25.359375 118.90625l-28.84375 0l12.1875 -57.515625q-3.109375 -1.421875 -7.640625 -2.59375q-4.53125 -1.171875 -7.421875 -1.421875q-7.75 16.75 -13.3125 36.296875q-5.546875 19.53125 -5.546875 30.984375q0 4.765625 5.546875 11.875zm37.828125 -119.734375q0.109375 -0.0625 -6.796875 9.203125q-6.890625 9.25 -11.6875 18.96875q7.3125 1.4375 11.765625 3.3125l6.71875 -31.484375zm58.075928 -2.359375l29.640625 -4.0l-11.015625 51.875q1.984375 -0.15625 7.578125 -5.40625q5.609375 -5.265625 8.90625 -13.3125q3.3125 -8.046875 3.3125 -15.75q0 -8.140625 -3.953125 -12.96875q-3.953125 -4.84375 -12.015625 -4.84375q-17.59375 0 -27.21875 8.984375q-9.609375 8.984375 -9.609375 25.375q0 4.984375 1.078125 7.234375q1.078125 2.234375 1.078125 6.5q-12.75 0 -17.874985 -4.34375q-5.109375 -4.34375 -5.109375 -13.875q0 -11.09375 8.75 -21.171875q8.749985 -10.078125 22.062485 -16.15625q13.3125 -6.09375 26.703125 -6.09375q12.984375 0 21.953125 4.5625q8.96875 4.5625 13.359375 12.234375q4.40625 7.671875 4.40625 16.875q0 10.921875 -5.921875 21.25q-5.90625 10.3125 -16.859375 16.875q-10.953125 6.546875 -25.140625 6.546875l0 -2.265625l-7.59375 46.34375l-28.875 0l22.359375 -104.46875z" fill-rule="nonzero"/></g></g></svg>