<svg version="1.1" viewBox="0.0 0.0 336.73228346456693 320.76115485564304" fill="none" stroke="none" stroke-linecap="square" stroke-miterlimit="10" xmlns:xlink="http://www.w3.org/1999/xlink" xmlns="http://www.w3.org/2000/svg"><clipPath id="p.0"><path d="m0 0l336.73227 0l0 320.76117l-336.73227 0l0 -320.76117z" clip-rule="nonzero"/></clipPath><g clip-path="url(#p.0)"><path fill="#000000" fill-opacity="0.0" d="m0 0l336.73227 0l0 320.76117l-336.73227 0z" fill-rule="evenodd"/><g filter="url(#shadowFilter-p.1)"><use xlink:href="#p.1" transform="matrix(1.0 0.0 0.0 1.0 -4.588611512672244 6.55321624835958)"/></g><defs><filter id="shadowFilter-p.1" filterUnits="userSpaceOnUse"><feGaussianBlur in="SourceAlpha" stdDeviation="4.5" result="blur"/><feComponentTransfer in="blur" color-interpolation-filters="sRGB"><feFuncR type="linear" slope="0" intercept="0.6"/><feFuncG type="linear" slope="0" intercept="0.6"/><feFuncB type="linear" slope="0" intercept="0.6"/><feFuncA type="linear" slope="0.66" intercept="0"/></feComponentTransfer></filter></defs><g id="p.1"><path fill="#f48fb0" fill-opacity="0.8884" d="m12.750656 156.59317l0 0c0 -83.43413 69.79423 -151.07086 155.88977 -151.07086l0 0c41.34453 0 80.9957 15.916349 110.2307 44.247635c29.235016 28.331284 45.659058 66.756744 45.659058 106.82323l0 0c0 83.43414 -69.79422 151.07086 -155.88976 151.07086l0 0c-86.09554 0 -155.88977 -67.63672 -155.88977 -151.07086z" fill-rule="evenodd"/><path stroke="#f48fb0" stroke-width="3.0" stroke-linejoin="round" stroke-linecap="butt" d="m12.750656 156.59317l0 0c0 -83.43413 69.79423 -151.07086 155.88977 -151.07086l0 0c41.34453 0 80.9957 15.916349 110.2307 44.247635c29.235016 28.331284 45.659058 66.756744 45.659058 106.82323l0 0c0 83.43414 -69.79422 151.07086 -155.88976 151.07086l0 0c-86.09554 0 -155.88977 -67.63672 -155.88977 -151.07086z" fill-rule="evenodd"/><path fill="#e1165a" d="m111.32052 200.38692q-8.984375 0 -16.25 -4.453125q-7.265625 -4.453125 -11.40625 -12.765625q-4.125 -8.328125 -4.125 -19.46875q0 -18.84375 8.078125 -34.953125q8.09375 -16.125 23.9375 -25.921875q15.859375 -9.796875 37.921867 -9.796875q5.703125 0 12.1875 0.875q6.5 0.859375 11.828125 2.59375q5.125 1.484375 5.125 7.203125q0 4.03125 -3.015625 7.59375q-3.0 3.546875 -7.28125 3.546875q-1.265625 0 -2.03125 -0.203125q-6.125 -1.40625 -10.421875 -2.046875q-4.296875 -0.640625 -9.03125 -0.640625q-14.453125 0 -24.531242 6.96875q-10.0625 6.953125 -15.09375 18.5q-5.03125 11.546875 -5.03125 25.078125q0 9.390625 3.40625 14.125q3.421875 4.734375 8.609375 4.734375q6.234375 0 11.1875 -5.390625q4.9687424 -5.40625 9.421867 -18.515625q4.453125 -13.109375 8.859375 -36.015625q0.96875 -4.5 3.90625 -6.125q2.953125 -1.640625 7.1875 -1.640625q11.015625 0 11.015625 8.03125q0 1.265625 -0.4375 3.015625q-3.09375 11.5625 -5.65625 25.515625q-2.546875 13.9375 -2.546875 21.015625q0 5.734375 1.34375 7.796875q1.359375 2.0625 3.96875 2.0625q3.0 0 6.03125 -2.25q3.046875 -2.25 8.140625 -8.265625q2.1875 -2.5625 5.140625 -2.5625q2.953125 0 4.40625 2.34375q1.453125 2.328125 1.453125 5.5625q0 5.5625 -2.859375 9.03125q-6.109375 7.359375 -12.21875 11.390625q-6.109375 4.03125 -15.015625 4.03125q-9.40625 0 -15.234375 -5.5q-5.828125 -5.5 -6.078125 -7.140625q-6.03125 12.640625 -24.890617 12.640625zm165.36676 -32.109375q2.953125 0 4.40625 2.40625q1.453125 2.390625 1.453125 5.375q0 3.375 -1.140625 5.5q-1.140625 2.109375 -3.453125 3.65625q-7.0625 4.671875 -21.6875 14.75q-4.5468597 24.203125 -12.437485 39.3125q-7.875 15.109375 -20.78125 15.109375q-7.140625 0 -11.734375 -4.5q-4.578125 -4.5 -4.578125 -11.671875q0 -6.171875 2.703125 -12.359375q2.71875 -6.171875 9.828125 -13.96875q7.109375 -7.796875 19.109375 -17.046875l1.03125 1.171875q-7.34375 4.375 -16.96875 4.375q-14.046875 0 -24.84375 -5.515625q-10.78125 -5.53125 -16.78125 -15.734375q-5.984375 -10.21875 -5.984375 -23.609375q0 -18.328125 7.0 -32.53125q7.0 -14.203125 19.421875 -22.078125q12.4375 -7.890625 27.796875 -7.890625q15.015625 0 22.796875 7.25q7.7812347 7.234375 7.7812347 19.140625q0 7.78125 -3.140625 12.9375q-3.1249847 5.15625 -9.32811 5.15625q-4.09375 0 -6.90625 -2.203125q-2.796875 -2.203125 -2.796875 -6.171875q0 -1.40625 0.53125 -4.546875q0.671875 -3.15625 0.671875 -4.8125q0 -3.9375 -2.296875 -6.0q-2.28125 -2.0625 -8.515625 -2.0625q-8.0 0 -14.890625 4.640625q-6.890625 4.625 -11.203125 14.078125q-4.296875 9.453125 -4.296875 22.9375q0 13.375 7.125 20.5q7.140625 7.125 20.984375 7.125q7.78125 0 14.96875 -2.96875l1.1875 -10.390625l-9.4375 0q-4.328125 0 -6.890625 -2.3125q-2.5625 -2.328125 -2.5625 -7.15625q0 -4.34375 2.5 -7.015625q2.515625 -2.671875 6.59375 -2.671875l22.4375 0q3.6718597 0 6.2031097 2.53125q2.546875 2.515625 2.046875 6.9375q-0.359375 3.875 -2.421875 17.5l-0.453125 3.140625q4.828125 -3.625 12.84375 -8.96875q2.203125 -1.34375 4.109375 -1.34375zm-52.32811 69.46875q1.609375 0 4.890625 -6.25q3.296875 -6.25 4.984375 -14.484375q-3.28125 2.8125 -7.015625 8.65625q-3.71875 5.84375 -3.71875 9.90625q0 2.171875 0.859375 2.171875z" fill-rule="nonzero"/></g></g></svg>